# Blender v3.1.2 OBJ File: ''
# www.blender.org
mtllib wolfUnion.mtl
o Cube
v -1.000000 2.002745 1.132583
v -1.000000 0.002745 1.132583
v -1.000000 2.002745 -0.867417
v -1.000000 0.002745 -0.867417
v 1.000000 2.002745 1.132583
v 1.000000 0.002745 1.132583
v 1.000000 2.002745 -0.867417
v 1.000000 0.002745 -0.867417
v 0.000000 1.912065 -0.122240
v 0.014721 1.912065 -0.127242
v 0.028876 1.912065 -0.142058
v 0.041921 1.912065 -0.166117
v 0.053355 1.912065 -0.198495
v 0.062739 1.912065 -0.237948
v 0.069712 1.912065 -0.282960
v 0.074006 1.912065 -0.331800
v 0.075456 1.912065 -0.382592
v 0.074006 1.912065 -0.433384
v 0.069712 1.912065 -0.482225
v 0.062739 1.912065 -0.527236
v 0.053355 1.912065 -0.566689
v 0.041921 1.912065 -0.599068
v 0.028876 1.912065 -0.623127
v 0.014721 1.912065 -0.637942
v -0.000000 1.912065 -0.642945
v -0.014721 1.912065 -0.637942
v -0.028876 1.912065 -0.623127
v -0.041921 1.912065 -0.599067
v -0.053355 1.912065 -0.566689
v -0.062739 1.912065 -0.527236
v -0.069712 1.912065 -0.482225
v -0.074006 1.912065 -0.433384
v -0.075456 1.912065 -0.382592
v -0.074006 1.912065 -0.331800
v -0.069712 1.912065 -0.282960
v -0.062739 1.912065 -0.237948
v -0.053355 1.912065 -0.198495
v -0.041921 1.912065 -0.166117
v -0.028876 1.912065 -0.142058
v -0.014721 1.912065 -0.127242
v 0.000000 3.301785 -0.382592
v 0.000000 1.912065 0.936919
v 0.014721 1.912065 0.931916
v 0.028876 1.912065 0.917101
v 0.041921 1.912065 0.893042
v 0.053355 1.912065 0.860664
v 0.062739 1.912065 0.821211
v 0.069712 1.912065 0.776199
v 0.074006 1.912065 0.727359
v 0.075456 1.912065 0.676566
v 0.074006 1.912065 0.625774
v 0.069712 1.912065 0.576934
v 0.062739 1.912065 0.531922
v 0.053355 1.912065 0.492469
v 0.041921 1.912065 0.460091
v 0.028876 1.912065 0.436032
v 0.014721 1.912065 0.421216
v -0.000000 1.912065 0.416214
v -0.014721 1.912065 0.421216
v -0.028876 1.912065 0.436032
v -0.041921 1.912065 0.460091
v -0.053355 1.912065 0.492469
v -0.062739 1.912065 0.531922
v -0.069712 1.912065 0.576934
v -0.074006 1.912065 0.625774
v -0.075456 1.912065 0.676566
v -0.074006 1.912065 0.727359
v -0.069712 1.912065 0.776199
v -0.062739 1.912065 0.821211
v -0.053355 1.912065 0.860664
v -0.041921 1.912065 0.893042
v -0.028876 1.912065 0.917101
v -0.014721 1.912065 0.931916
v 0.000000 3.301785 0.676566
vt 0.875000 0.500000
vt 0.625000 0.750000
vt 0.625000 0.500000
vt 0.375000 1.000000
vt 0.375000 0.750000
vt 0.625000 0.000000
vt 0.375000 0.250000
vt 0.375000 0.000000
vt 0.375000 0.500000
vt 0.125000 0.750000
vt 0.125000 0.500000
vt 0.625000 0.250000
vt 0.000000 0.000000
vt 0.000000 0.000000
vt 0.000000 0.000000
vt 0.000000 0.000000
vt 0.000000 0.000000
vt 0.000000 0.000000
vt 0.000000 0.000000
vt 0.000000 0.000000
vt 0.000000 0.000000
vt 0.000000 0.000000
vt 0.000000 0.000000
vt 0.000000 0.000000
vt 0.000000 0.000000
vt 0.000000 0.000000
vt 0.000000 0.000000
vt 0.000000 0.000000
vt 0.000000 0.000000
vt 0.000000 0.000000
vt 0.000000 0.000000
vt 0.000000 0.000000
vt 0.000000 0.000000
vt 0.000000 0.000000
vt 0.000000 0.000000
vt 0.000000 0.000000
vt 0.000000 0.000000
vt 0.000000 0.000000
vt 0.000000 0.000000
vt 0.000000 0.000000
vt 0.000000 0.000000
vt 0.000000 0.000000
vt 0.000000 0.000000
vt 0.000000 0.000000
vt 0.000000 0.000000
vt 0.000000 0.000000
vt 0.000000 0.000000
vt 0.000000 0.000000
vt 0.000000 0.000000
vt 0.000000 0.000000
vt 0.000000 0.000000
vt 0.000000 0.000000
vt 0.000000 0.000000
vt 0.000000 0.000000
vt 0.000000 0.000000
vt 0.000000 0.000000
vt 0.000000 0.000000
vt 0.000000 0.000000
vt 0.000000 0.000000
vt 0.000000 0.000000
vt 0.000000 0.000000
vt 0.000000 0.000000
vt 0.000000 0.000000
vt 0.000000 0.000000
vt 0.000000 0.000000
vt 0.000000 0.000000
vt 0.000000 0.000000
vt 0.000000 0.000000
vt 0.000000 0.000000
vt 0.000000 0.000000
vt 0.000000 0.000000
vt 0.000000 0.000000
vt 0.000000 0.000000
vt 0.000000 0.000000
vt 0.000000 0.000000
vt 0.000000 0.000000
vt 0.000000 0.000000
vt 0.000000 0.000000
vt 0.875000 0.750000
vt 0.625000 1.000000
vn 0.0000 1.0000 0.0000
vn 0.0000 0.0000 -1.0000
vn 1.0000 0.0000 0.0000
vn 0.0000 -1.0000 0.0000
vn -1.0000 0.0000 0.0000
vn 0.0000 0.0000 1.0000
vn -0.3168 -0.1747 -0.9323
vn -0.7166 -0.1334 -0.6846
vn -0.8747 -0.1003 -0.4743
vn -0.9399 -0.0801 -0.3319
vn -0.9706 -0.0678 -0.2309
vn -0.9864 -0.0604 -0.1528
vn -0.9946 -0.0562 -0.0874
vn -0.9981 -0.0542 -0.0285
vn -0.9981 -0.0542 0.0285
vn -0.9946 -0.0562 0.0874
vn -0.9864 -0.0604 0.1528
vn -0.9706 -0.0678 0.2309
vn -0.9399 -0.0801 0.3319
vn -0.8747 -0.1003 0.4743
vn -0.7166 -0.1334 0.6846
vn -0.3168 -0.1747 0.9323
vn 0.3168 -0.1747 0.9323
vn 0.7166 -0.1334 0.6846
vn 0.8747 -0.1003 0.4743
vn 0.9399 -0.0801 0.3319
vn 0.9706 -0.0678 0.2309
vn 0.9864 -0.0604 0.1528
vn 0.9946 -0.0562 0.0874
vn 0.9981 -0.0542 0.0285
vn 0.9981 -0.0542 -0.0285
vn 0.9946 -0.0562 -0.0874
vn 0.9864 -0.0604 -0.1528
vn 0.9706 -0.0678 -0.2309
vn 0.9399 -0.0801 -0.3319
vn 0.8747 -0.1003 -0.4743
vn 0.7166 -0.1334 -0.6846
vn 0.3168 -0.1747 -0.9323
usemtl Material
s off
f 5/1/1 3/2/1 1/3/1
f 3/2/2 8/4/2 4/5/2
f 7/6/3 6/7/3 8/8/3
f 2/9/4 8/10/4 6/11/4
f 1/3/5 4/5/5 2/9/5
f 5/12/6 2/9/6 6/7/6
f 9/13/7 41/14/7 10/15/7
f 10/15/8 41/14/8 11/16/8
f 11/16/9 41/14/9 12/17/9
f 12/17/10 41/14/10 13/18/10
f 13/18/11 41/14/11 14/19/11
f 14/19/12 41/14/12 15/20/12
f 15/20/13 41/14/13 16/21/13
f 16/21/14 41/14/14 17/22/14
f 17/22/15 41/14/15 18/23/15
f 18/23/16 41/14/16 19/24/16
f 19/24/17 41/14/17 20/25/17
f 20/25/18 41/14/18 21/26/18
f 21/26/19 41/14/19 22/27/19
f 22/27/20 41/14/20 23/28/20
f 23/28/21 41/14/21 24/29/21
f 24/29/22 41/14/22 25/30/22
f 25/30/23 41/14/23 26/31/23
f 26/31/24 41/14/24 27/32/24
f 27/32/25 41/14/25 28/33/25
f 28/33/26 41/14/26 29/34/26
f 29/34/27 41/14/27 30/35/27
f 30/35/28 41/14/28 31/36/28
f 31/36/29 41/14/29 32/37/29
f 32/37/30 41/14/30 33/38/30
f 33/38/31 41/14/31 34/39/31
f 34/39/32 41/14/32 35/40/32
f 35/40/33 41/14/33 36/41/33
f 36/41/34 41/14/34 37/42/34
f 37/42/35 41/14/35 38/43/35
f 38/43/36 41/14/36 39/44/36
f 38/43/1 39/44/1 12/17/1
f 39/44/37 41/14/37 40/45/37
f 40/45/38 41/14/38 9/13/38
f 42/46/7 74/47/7 43/48/7
f 43/48/8 74/47/8 44/49/8
f 44/49/9 74/47/9 45/50/9
f 45/50/10 74/47/10 46/51/10
f 46/51/11 74/47/11 47/52/11
f 47/52/12 74/47/12 48/53/12
f 48/53/13 74/47/13 49/54/13
f 49/54/14 74/47/14 50/55/14
f 50/55/15 74/47/15 51/56/15
f 51/56/16 74/47/16 52/57/16
f 52/57/17 74/47/17 53/58/17
f 53/58/18 74/47/18 54/59/18
f 54/59/19 74/47/19 55/60/19
f 55/60/20 74/47/20 56/61/20
f 56/61/21 74/47/21 57/62/21
f 57/62/22 74/47/22 58/63/22
f 58/63/23 74/47/23 59/64/23
f 59/64/24 74/47/24 60/65/24
f 60/65/25 74/47/25 61/66/25
f 61/66/26 74/47/26 62/67/26
f 62/67/27 74/47/27 63/68/27
f 63/68/28 74/47/28 64/69/28
f 64/69/29 74/47/29 65/70/29
f 65/70/30 74/47/30 66/71/30
f 66/71/31 74/47/31 67/72/31
f 67/72/32 74/47/32 68/73/32
f 68/73/33 74/47/33 69/74/33
f 69/74/34 74/47/34 70/75/34
f 70/75/35 74/47/35 71/76/35
f 71/76/36 74/47/36 72/77/36
f 71/76/1 72/77/1 45/50/1
f 72/77/37 74/47/37 73/78/37
f 73/78/38 74/47/38 42/46/38
f 5/1/1 7/79/1 3/2/1
f 3/2/2 7/80/2 8/4/2
f 7/6/3 5/12/3 6/7/3
f 2/9/4 4/5/4 8/10/4
f 1/3/5 3/2/5 4/5/5
f 5/12/6 1/3/6 2/9/6
f 40/45/1 9/13/1 10/15/1
f 10/15/1 11/16/1 40/45/1
f 11/16/1 12/17/1 39/44/1
f 40/45/1 11/16/1 39/44/1
f 12/17/1 13/18/1 37/42/1
f 13/18/1 14/19/1 36/41/1
f 14/19/1 15/20/1 36/41/1
f 15/20/1 16/21/1 35/40/1
f 36/41/1 15/20/1 35/40/1
f 16/21/1 17/22/1 33/38/1
f 17/22/1 18/23/1 32/37/1
f 18/23/1 19/24/1 32/37/1
f 19/24/1 20/25/1 31/36/1
f 32/37/1 19/24/1 31/36/1
f 20/25/1 21/26/1 29/34/1
f 21/26/1 22/27/1 28/33/1
f 22/27/1 23/28/1 28/33/1
f 23/28/1 24/29/1 27/32/1
f 28/33/1 23/28/1 27/32/1
f 24/29/1 25/30/1 26/31/1
f 26/31/1 27/32/1 24/29/1
f 28/33/1 29/34/1 21/26/1
f 29/34/1 30/35/1 20/25/1
f 30/35/1 31/36/1 20/25/1
f 32/37/1 33/38/1 17/22/1
f 33/38/1 34/39/1 16/21/1
f 34/39/1 35/40/1 16/21/1
f 36/41/1 37/42/1 13/18/1
f 37/42/1 38/43/1 12/17/1
f 73/78/1 42/46/1 43/48/1
f 43/48/1 44/49/1 73/78/1
f 44/49/1 45/50/1 72/77/1
f 73/78/1 44/49/1 72/77/1
f 45/50/1 46/51/1 70/75/1
f 46/51/1 47/52/1 69/74/1
f 47/52/1 48/53/1 69/74/1
f 48/53/1 49/54/1 68/73/1
f 69/74/1 48/53/1 68/73/1
f 49/54/1 50/55/1 66/71/1
f 50/55/1 51/56/1 65/70/1
f 51/56/1 52/57/1 65/70/1
f 52/57/1 53/58/1 64/69/1
f 65/70/1 52/57/1 64/69/1
f 53/58/1 54/59/1 62/67/1
f 54/59/1 55/60/1 61/66/1
f 55/60/1 56/61/1 61/66/1
f 56/61/1 57/62/1 60/65/1
f 61/66/1 56/61/1 60/65/1
f 57/62/1 58/63/1 59/64/1
f 59/64/1 60/65/1 57/62/1
f 61/66/1 62/67/1 54/59/1
f 62/67/1 63/68/1 53/58/1
f 63/68/1 64/69/1 53/58/1
f 65/70/1 66/71/1 50/55/1
f 66/71/1 67/72/1 49/54/1
f 67/72/1 68/73/1 49/54/1
f 69/74/1 70/75/1 46/51/1
f 70/75/1 71/76/1 45/50/1
